<?xml version="1.0" encoding="UTF-8"?><svg id="web_画像" xmlns="http://www.w3.org/2000/svg" width="642.01mm" height="646.48mm" viewBox="0 0 1819.86 1832.53"><defs><style>.cls-1{fill:none;stroke:#000;stroke-linecap:round;stroke-linejoin:round;stroke-width:31.32px;}</style></defs><path class="cls-1" d="M131.64,628.05c-2.34,12.44,5.86,20.9,11.65,30.12,28.32,45.17,45.63,94.7,57.87,146.19,7.53,31.7,12.45,63.84,16.71,96.2,6.01,45.62,5.74,91.38,3.64,136.88-2.81,60.94-13.28,120.86-41.13,176.33-3.68,7.33-8.24,14.1-12.86,20.81-4.7,6.84-9.75,12.92-10.89,22.02-.62,4.99-4.84,10.31-12.17,11.93-13.46,2.98-24.51,11.88-37.1,17.29-22.24,9.56-44.05,20.15-66.18,29.99"/><path class="cls-1" d="M1199.84,142.08c-6.22-.34-11.59,1.6-16.25,5.79-43.39,39.03-95.84,60.46-150.82,76.39-38.96,11.28-78.86,17.68-119.36,21.58-22.07,2.13-44.33,2.91-66.17,3.13-27.28.27-54.94-1.91-82.4-5.47-45.29-5.87-88.82-17.05-130.99-34.14-17.7-7.17-32.48-21.81-57.62-19.09-7.86,3.34-6.54,15.66-8.08,24.96-7.18,43.4-26.44,81.6-49.26,118.15-57.25,91.66-132.26,166.09-222.64,224.95-36.65,23.87-75.64,43.38-118.24,54.54-12.58,3.3-25.72,4.12-37.25,11.45-4.42,2.82-10.32,2.94-16.13.38-35.64-15.71-72.58-28.08-108.97-41.88"/><path class="cls-1" d="M1625.5,601.37c32.48-27.84-7.5,16.9-12.87,24.28-33.12,45.6-51.25,96.9-61.77,151.94-8.27,43.26-9.1,86.72-5.99,129.94,4.78,66.24,22.84,129.67,53.09,188.94,14.29,27.99,32.19,54.1,53.15,77.78,4.89,5.53,8.43,11.1,8.02,18.64"/><path class="cls-1" d="M1220.72,1610.42c16.24,15.08-20.97-11.42-31.34-17.36-33.57-19.25-70.06-29.85-107.81-37.3-45.76-9.03-92.15-9.33-138-6.16-82.39,5.7-161.55,25.54-234.39,66.51-16.37,9.21-15.75,12.05-46.22,31.56s-28.05,12.59-30.46,19.51c-17.2,49.45-54.29,147.38-54.29,147.38,0,0-.03,1.53-.03,2.31"/><path class="cls-1" d="M1199.84,173.39c7.03-58.57,5.92,17.39,5.92,17.39,0,0,9.78,66.45,24.15,97.47,38.01,82.01,100.94,140.98,175.35,188.81,58.89,37.85,123.42,63.31,191.3,80,14.8,3.64,29.87,6.84,45.16,8.47,6.16.65,12,2.97,16.25,8"/><path class="cls-1" d="M154.84,1269.43c6.42,6.46,14.14,8.03,23.19,8.37,26.58,1,52.49,7.08,77.65,15.05,88.55,28.04,166.73,74.08,235.69,136.45,36.49,33,68.11,69.66,93.76,111.54,18.5,30.21,33.44,61.8,38.43,97.4.79,5.66,3.43,11.06,7.98,15.1"/><path class="cls-1" d="M1136.05,1397.01l10.38-29.01s29.91-78.75,55.86-112.39c46.04-59.68,101.36-108.42,170.32-140.53,8.56-3.99,15.97-9.95,21.52-17.19,88.68,33.09,176.32,67.65,266.05,98.27-1.36,8.13-9.36,12.92-17.37,16.26-40.37,16.8-76.83,40.21-112.4,65.17-47.11,33.06-90.5,70.67-130.9,111.49-47.28,47.77-90.04,99.49-123.94,157.76-10.1,17.36-19.14,35.79-24.71,55.47-1.76,6.23-3.5,12.78-8.23,17.27-6.26,5.96-5.17,12.44-2.09,18.63,25,50.38,46.9,102.19,70.65,153.15"/><path class="cls-1" d="M1236.96,1625.5c-10.46-5.29-15.2-13.06-15.49-25.51-.35-14.54-10.15-26.4-15.81-39.45-19.75-45.57-65.09-144.36-65.81-148.51-3.03-17.56-55.45-38.63-68.76-41.63-19.87-4.48-39.86-7.87-60.26-9.74-19-1.74-37.97-2.77-56.86-1.73-66.55,3.67-131.4,15.07-191.36,46.23-10.74,5.58-18.81,16.5-32.5,16.2"/><path class="cls-1" d="M416.96,739.39c-.19,5.22,1.18,9.58,4.52,14.01,34.92,46.33,56.26,98.74,66.97,155.41,1.82,9.63,3.64,19.79,2.93,30.09-.88,12.7,1.27,25.28.52,38.3-2.8,48.53-16.32,92.73-44.89,132.1-3.93,5.42-7,10.69-6.85,17.48"/><path class="cls-1" d="M1086.18,445.95c-6.85-.3-12.19,2.53-17.48,6.86-35.93,29.41-78.52,44.46-122.96,54.14-15.7,3.42-65.36,8.21-74.14,7.55-42.77-3.2-85.05-8.04-124.17-27.81-9.85-4.98-30.08-14.06-30.08-14.06"/><path class="cls-1" d="M422.76,1147.65c9.06,10.88,22.51,7.06,33.71,8.79,36.45,5.63,70.59,17.85,103.01,34.4,38.99,19.91,73.76,46.06,103.33,78.62,28.33,31.18,50.16,66.08,58.97,107.88,1.25,5.91,4.7,10.08,7.18,15.03"/><path class="cls-1" d="M1249.72,15.66s-12.01,37.39-19.17,55.43c-8.93,22.52-27.38,67.41-27.38,67.41,0,0-20.16,58.39-23.89,68.65-23.22,63.93-48.1,127.24-71.15,191.23-3.63,10.07-9.24,19.34-13.74,29.07-6.64,14.33,1.13,42.84,1.13,42.84l7.63,27.98s40.75,88.23,77.23,121.4c38.04,34.6,82.81,58.04,133.17,69.7,14.4,3.33,29.09,6.43,44.03,5.83,8.79-.35,15.04,4.14,21.46,8.83"/><path class="cls-1" d="M697.64,455.23c-7.55,6.42-8.16,15.96-9,24.38-4.86,48.93-23.58,92.29-51.34,132.17-27.76,39.88-62.93,71.8-105.6,94.96-22,11.94-45.48,20.54-70.66,23.32-5.97.66-9.87,4.44-13.91,8.16"/><path class="cls-1" d="M144.4,626.89c12.05,11.48,28.24,14.05,42.95,19.62,65.21,24.69,195.91,73.34,195.91,73.34l39.51,16.1s55.82,19.61,70.82,25.25c62.17,23.39,124.21,47.14,186.63,69.87,3.72,1.35,42.91,13.88,42.91,13.88,0,0,133.91,52.63,187.91,73.05"/><path class="cls-1" d="M701.12,843.78c-.06,6.46,2.24,11.79,5.55,17.54,15.58,27.14,24,56.51,23.32,88-.27,12.25-3.33,24.3-7.06,35.88-3.16,9.82-4.25,20.83-13.5,28.14-2.32,1.84-3.95,3.62-7.1,4.55-35.76,10.59-68.26,28.83-102.17,43.79-46.23,20.4-92.18,41.38-137.99,62.69-3.97,1.85-8.4,3.97-12.7,3.38-13.07-1.8-20.59,6.12-26.35,15.46-2.38,3.85-4.78,5.78-8.48,6.7-37.1,9.27-69.84,28.78-104.43,43.98-44.68,19.63-88.97,40.11-133.35,60.38-5.77,2.63-12.05,3.91-18.52,3.55"/><path class="cls-1" d="M585.13,191.95c7.89,29.02,23.04,54.97,34.88,82.31,23.37,54,50.6,106.29,71.79,161.27,3.93,10.18,28.29,59.02,31.56,66,26.35,56.24,51.32,113.12,77.4,169.48,7.27,15.7,14.91,31.26,21.12,47.45,1.33,3.47,1.07,9.19,6.81,9.26,14.3.17,25.96,8.91,39.43,11.69,36.04,7.43,67.55-2.84,96.3-24.33,6.99-5.23,13.29-12.06,23.17-11.64"/><path class="cls-1" d="M1373.82,712.71c-13.15-.8-23.63,6.76-34.72,11.75-60.41,27.22-120.45,55.28-180.97,82.26-9.32,4.15-18.13,9.43-27.86,12.7-4.01,1.35-7.76,3.94-7.96,8.11-.72,15.23-12.04,25.82-16.48,39.4-12.69,38.78-7.36,74.36,15.98,108.12,8.07,11.68,14.85,24.08,25.85,33.41"/><path class="cls-1" d="M831.02,730.11c-.29,14.55,8.82,25.78,14.16,38.17,21.43,49.75,46.21,98.01,66.14,148.46,1.54,3.9,1.35,5.81-.09,9.46-18.61,47.24-35.69,95.06-53.9,142.44-6.15,15.99-46.92,125.85-55.08,147.52-19.92,52.89-40,105.72-59.31,158.83-1.8,4.96-22.28,64.83-22.28,64.83,0,0-21.74,53.36-32.08,80.21-15.44,40.06-30.08,80.44-45.3,120.6-1.79,4.72-3.85,9.68-3.62,15.02"/><path class="cls-1" d="M1787.88,519.6c-32.59,15.49-62.93,29.66-113.69,50.04-50.76,20.38-68.68,32.55-74.19,35.24-49.31,24.04-99.75,45.62-149.54,68.6-21.43,9.89-43.25,18.68-65.05,27.62-4.05,1.66-8.93,3.72-9.05,8.14-.55,19.51-14.39,33.13-21.31,49.78-12.43,29.91-20.54,60.65-24.52,92.83-1.73,14.02-1.28,27.88-2.03,41.8"/><path class="cls-1" d="M1089.66,462.19c-11.32,6.87-13.23,19.54-17.1,30.26-20.88,57.75-78.09,198.15-78.09,198.15l-1.28,35.52s14.18,30.18,26.6,42.54c22.61,22.52,49.82,34.29,80.31,40.32,8.52,1.68,17.37,2.72,23.2,10.43"/><path class="cls-1" d="M835.66,1144.17c11.33,1.15,19.03-7.89,29.01-10.39,38.77-9.69,77.66-14.81,117.16-3.65,8.83,2.49,16.37,8.96,26.69,7.38,4.92-.75,7.35,4.84,9.19,9,24.5,55.57,50.36,110.52,75.38,165.86,8.55,18.92,17.5,37.67,25.58,56.8,2.24,5.32,3.41,10.64,1.14,16.24"/><path class="cls-1" d="M1145.91,1010.79c6.04-5.85,11.7-.4,16.74,1.38,48.19,17.08,95.98,35.29,143.86,53.22,19.02,7.13,38.46,13.19,56.91,21.84,1.58.74,3.88.42,5.74.05,10.82-2.15,17.95,2.83,23.21,11.65"/><path class="cls-1" d="M914.52,919.16c15.73.97,28.58,10.33,42.72,15.61,52.27,19.5,104.71,38.56,156.76,58.67,5.38,2.08,10.25,1.53,15.1-1.21"/><path class="cls-1" d="M916.84,927.28c19.74,39.66,36.79,80.56,55.67,120.62,10.54,22.38,20.18,45.16,31.12,67.36,3.3,6.7,7.01,13.82,5.99,21.94"/><path class="cls-1" d="M1119.81,828.7c-11.7-1.18-21.55,4.91-31.18,9.55-47.23,22.75-95.51,43.22-142.89,65.63-8.08,3.82-15.04,9.31-23.1,12.97"/><path class="cls-1" d="M991.07,725.47c-13.12,9.39-14.4,24.98-19.56,38.33-19.38,50.09-37.59,100.63-56.99,150.72"/><path class="cls-1" d="M1327.42,901.77l1.14,25.52s15.14,100.66,45.43,143.7c3.42,4.86,4.79,9.75,5.63,15.2"/><path class="cls-1" d="M904.09,921.48c-43.92,22.87-89.82,41.48-134.57,62.58-11.11,5.24-22.39,10.12-33.58,15.2-5.04,2.29-9.85,3.72-15.11,1.09"/><path class="cls-1" d="M1143.01,1011.95c-4.35,6.74-12.21,7.23-18.53,10.48-44.59,22.93-78.09,56.44-97.35,103.22-2.58,6.27-5.64,11.69-11.7,15.04"/><path class="cls-1" d="M1804.21,1251.81c-23.03-9.36-46.56-17.35-69.71-26.37-24.56-9.57-49.88-17.29-73.04-30.23"/><path class="cls-1" d="M709.24,1017.75c5.77,8,15.18,7.3,23.23,9.12,36.9,8.33,67.34,25.95,86.83,59.38,5.2,8.93,6.03,20.17,14.04,27.77"/><path class="cls-1" d="M822.9,726.63c-4.95,4.81-7.28,10.71-9.54,17.31-13.87,40.48-37.68,72.15-79.7,87.28-5.04,1.81-11.06,3.42-13.99,9.08"/><path class="cls-1" d="M524.82,65.53c13.56,29.37,27.25,58.7,40.18,88.33,4.92,11.28,9.72,22.86,13.76,34.61"/></svg>